<svg xmlns="http://www.w3.org/2000/svg" version="1.1" xmlns:xlink="http://www.w3.org/1999/xlink" xmlns:svgjs="http://svgjs.dev/svgjs" width="500" height="850" preserveAspectRatio="none" viewBox="0 0 500 850"><g mask="url(&quot;#SvgjsMask1076&quot;)" fill="none"><rect width="500" height="850" x="0" y="0" fill="rgba(244, 245, 248, 0.98)"></rect><path d="M-27.92 688.91L-27.92 688.91" stroke="rgba(241, 241, 243, 1)" stroke-width="1.5"></path><path d="M-27.92 688.91L48.88 697.17" stroke="rgba(241, 241, 243, 1)" stroke-width="1.5"></path><path d="M-27.92 688.91L-34.32 782.04" stroke="rgba(241, 241, 243, 1)" stroke-width="1.5"></path><path d="M-34.32 782.04L-34.32 782.04" stroke="rgba(241, 241, 243, 1)" stroke-width="1.5"></path><path d="M-34.32 782.04L71.31 816.97" stroke="rgba(241, 241, 243, 1)" stroke-width="1.5"></path><path d="M-34.32 782.04L48.88 697.17" stroke="rgba(241, 241, 243, 1)" stroke-width="1.5"></path><path d="M-75 912.15L-75 912.15" stroke="rgba(241, 241, 243, 1)" stroke-width="1.5"></path><path d="M-75 912.15L-34.32 782.04" stroke="rgba(241, 241, 243, 1)" stroke-width="1.5"></path><path d="M-75 912.15L75.81 917.43" stroke="rgba(241, 241, 243, 1)" stroke-width="1.5"></path><path d="M-75 912.15L71.31 816.97" stroke="rgba(241, 241, 243, 1)" stroke-width="1.5"></path><path d="M-75 912.15L-27.92 688.91" stroke="rgba(241, 241, 243, 1)" stroke-width="1.5"></path><path d="M-75 912.15L48.88 697.17" stroke="rgba(241, 241, 243, 1)" stroke-width="1.5"></path><path d="M78.57 564.15L78.57 564.15" stroke="rgba(241, 241, 243, 1)" stroke-width="1.5"></path><path d="M78.57 564.15L170.74 476.64" stroke="rgba(241, 241, 243, 1)" stroke-width="1.5"></path><path d="M78.57 564.15L48.88 697.17" stroke="rgba(241, 241, 243, 1)" stroke-width="1.5"></path><path d="M78.57 564.15L144.02 693.94" stroke="rgba(241, 241, 243, 1)" stroke-width="1.5"></path><path d="M48.88 697.17L48.88 697.17" stroke="rgba(241, 241, 243, 1)" stroke-width="1.5"></path><path d="M48.88 697.17L144.02 693.94" stroke="rgba(241, 241, 243, 1)" stroke-width="1.5"></path><path d="M48.88 697.17L71.31 816.97" stroke="rgba(241, 241, 243, 1)" stroke-width="1.5"></path><path d="M71.31 816.97L71.31 816.97" stroke="rgba(241, 241, 243, 1)" stroke-width="1.5"></path><path d="M71.31 816.97L156.99 796.32" stroke="rgba(241, 241, 243, 1)" stroke-width="1.5"></path><path d="M71.31 816.97L75.81 917.43" stroke="rgba(241, 241, 243, 1)" stroke-width="1.5"></path><path d="M75.81 917.43L75.81 917.43" stroke="rgba(241, 241, 243, 1)" stroke-width="1.5"></path><path d="M75.81 917.43L156.99 796.32" stroke="rgba(241, 241, 243, 1)" stroke-width="1.5"></path><path d="M170.74 476.64L170.74 476.64" stroke="rgba(241, 241, 243, 1)" stroke-width="1.5"></path><path d="M170.74 476.64L262.74 397.97" stroke="rgba(241, 241, 243, 1)" stroke-width="1.5"></path><path d="M170.74 476.64L273.29 580.01" stroke="rgba(241, 241, 243, 1)" stroke-width="1.5"></path><path d="M170.74 476.64L383.14 477.39" stroke="rgba(241, 241, 243, 1)" stroke-width="1.5"></path><path d="M144.02 693.94L144.02 693.94" stroke="rgba(241, 241, 243, 1)" stroke-width="1.5"></path><path d="M144.02 693.94L156.99 796.32" stroke="rgba(241, 241, 243, 1)" stroke-width="1.5"></path><path d="M144.02 693.94L277.08 669.42" stroke="rgba(241, 241, 243, 1)" stroke-width="1.5"></path><path d="M156.99 796.32L156.99 796.32" stroke="rgba(241, 241, 243, 1)" stroke-width="1.5"></path><path d="M156.99 796.32L250.34 787.4" stroke="rgba(241, 241, 243, 1)" stroke-width="1.5"></path><path d="M291.63 280.07L291.63 280.07" stroke="rgba(241, 241, 243, 1)" stroke-width="1.5"></path><path d="M291.63 280.07L375.72 265.78" stroke="rgba(241, 241, 243, 1)" stroke-width="1.5"></path><path d="M291.63 280.07L262.74 397.97" stroke="rgba(241, 241, 243, 1)" stroke-width="1.5"></path><path d="M291.63 280.07L357.62 156.18" stroke="rgba(241, 241, 243, 1)" stroke-width="1.5"></path><path d="M291.63 280.07L345.49 79.25" stroke="rgba(241, 241, 243, 1)" stroke-width="1.5"></path><path d="M291.63 280.07L500.27 264.54" stroke="rgba(241, 241, 243, 1)" stroke-width="1.5"></path><path d="M262.74 397.97L262.74 397.97" stroke="rgba(241, 241, 243, 1)" stroke-width="1.5"></path><path d="M262.74 397.97L383.14 477.39" stroke="rgba(241, 241, 243, 1)" stroke-width="1.5"></path><path d="M273.29 580.01L273.29 580.01" stroke="rgba(241, 241, 243, 1)" stroke-width="1.5"></path><path d="M273.29 580.01L277.08 669.42" stroke="rgba(241, 241, 243, 1)" stroke-width="1.5"></path><path d="M273.29 580.01L368.67 604.84" stroke="rgba(241, 241, 243, 1)" stroke-width="1.5"></path><path d="M277.08 669.42L277.08 669.42" stroke="rgba(241, 241, 243, 1)" stroke-width="1.5"></path><path d="M277.08 669.42L368.67 604.84" stroke="rgba(241, 241, 243, 1)" stroke-width="1.5"></path><path d="M277.08 669.42L381.99 711.19" stroke="rgba(241, 241, 243, 1)" stroke-width="1.5"></path><path d="M250.34 787.4L250.34 787.4" stroke="rgba(241, 241, 243, 1)" stroke-width="1.5"></path><path d="M250.34 787.4L272.29 877.84" stroke="rgba(241, 241, 243, 1)" stroke-width="1.5"></path><path d="M250.34 787.4L277.08 669.42" stroke="rgba(241, 241, 243, 1)" stroke-width="1.5"></path><path d="M250.34 787.4L376.27 789.82" stroke="rgba(241, 241, 243, 1)" stroke-width="1.5"></path><path d="M272.29 877.84L272.29 877.84" stroke="rgba(241, 241, 243, 1)" stroke-width="1.5"></path><path d="M272.29 877.84L363.67 922.84" stroke="rgba(241, 241, 243, 1)" stroke-width="1.5"></path><path d="M272.29 877.84L376.27 789.82" stroke="rgba(241, 241, 243, 1)" stroke-width="1.5"></path><path d="M272.29 877.84L156.99 796.32" stroke="rgba(241, 241, 243, 1)" stroke-width="1.5"></path><path d="M372.45 -50.19L372.45 -50.19" stroke="rgba(241, 241, 243, 1)" stroke-width="1.5"></path><path d="M372.45 -50.19L451.58 -37.64" stroke="rgba(241, 241, 243, 1)" stroke-width="1.5"></path><path d="M372.45 -50.19L345.49 79.25" stroke="rgba(241, 241, 243, 1)" stroke-width="1.5"></path><path d="M372.45 -50.19L489.03 52.07" stroke="rgba(241, 241, 243, 1)" stroke-width="1.5"></path><path d="M372.45 -50.19L559.48 -70.23" stroke="rgba(241, 241, 243, 1)" stroke-width="1.5"></path><path d="M372.45 -50.19L357.62 156.18" stroke="rgba(241, 241, 243, 1)" stroke-width="1.5"></path><path d="M345.49 79.25L345.49 79.25" stroke="rgba(241, 241, 243, 1)" stroke-width="1.5"></path><path d="M345.49 79.25L357.62 156.18" stroke="rgba(241, 241, 243, 1)" stroke-width="1.5"></path><path d="M357.62 156.18L357.62 156.18" stroke="rgba(241, 241, 243, 1)" stroke-width="1.5"></path><path d="M357.62 156.18L458.92 141.82" stroke="rgba(241, 241, 243, 1)" stroke-width="1.5"></path><path d="M357.62 156.18L375.72 265.78" stroke="rgba(241, 241, 243, 1)" stroke-width="1.5"></path><path d="M375.72 265.78L375.72 265.78" stroke="rgba(241, 241, 243, 1)" stroke-width="1.5"></path><path d="M375.72 265.78L500.27 264.54" stroke="rgba(241, 241, 243, 1)" stroke-width="1.5"></path><path d="M383.14 477.39L383.14 477.39" stroke="rgba(241, 241, 243, 1)" stroke-width="1.5"></path><path d="M383.14 477.39L452.21 476.64" stroke="rgba(241, 241, 243, 1)" stroke-width="1.5"></path><path d="M383.14 477.39L368.67 604.84" stroke="rgba(241, 241, 243, 1)" stroke-width="1.5"></path><path d="M383.14 477.39L481.66 560.52" stroke="rgba(241, 241, 243, 1)" stroke-width="1.5"></path><path d="M383.14 477.39L273.29 580.01" stroke="rgba(241, 241, 243, 1)" stroke-width="1.5"></path><path d="M368.67 604.84L368.67 604.84" stroke="rgba(241, 241, 243, 1)" stroke-width="1.5"></path><path d="M368.67 604.84L381.99 711.19" stroke="rgba(241, 241, 243, 1)" stroke-width="1.5"></path><path d="M368.67 604.84L481.66 560.52" stroke="rgba(241, 241, 243, 1)" stroke-width="1.5"></path><path d="M368.67 604.84L454.95 695.96" stroke="rgba(241, 241, 243, 1)" stroke-width="1.5"></path><path d="M381.99 711.19L381.99 711.19" stroke="rgba(241, 241, 243, 1)" stroke-width="1.5"></path><path d="M381.99 711.19L454.95 695.96" stroke="rgba(241, 241, 243, 1)" stroke-width="1.5"></path><path d="M381.99 711.19L376.27 789.82" stroke="rgba(241, 241, 243, 1)" stroke-width="1.5"></path><path d="M376.27 789.82L376.27 789.82" stroke="rgba(241, 241, 243, 1)" stroke-width="1.5"></path><path d="M376.27 789.82L454.95 695.96" stroke="rgba(241, 241, 243, 1)" stroke-width="1.5"></path><path d="M363.67 922.84L363.67 922.84" stroke="rgba(241, 241, 243, 1)" stroke-width="1.5"></path><path d="M363.67 922.84L376.27 789.82" stroke="rgba(241, 241, 243, 1)" stroke-width="1.5"></path><path d="M363.67 922.84L494.99 888.22" stroke="rgba(241, 241, 243, 1)" stroke-width="1.5"></path><path d="M363.67 922.84L502.84 819.99" stroke="rgba(241, 241, 243, 1)" stroke-width="1.5"></path><path d="M451.58 -37.64L451.58 -37.64" stroke="rgba(241, 241, 243, 1)" stroke-width="1.5"></path><path d="M451.58 -37.64L489.03 52.07" stroke="rgba(241, 241, 243, 1)" stroke-width="1.5"></path><path d="M451.58 -37.64L559.48 -70.23" stroke="rgba(241, 241, 243, 1)" stroke-width="1.5"></path><path d="M451.58 -37.64L345.49 79.25" stroke="rgba(241, 241, 243, 1)" stroke-width="1.5"></path><path d="M451.58 -37.64L458.92 141.82" stroke="rgba(241, 241, 243, 1)" stroke-width="1.5"></path><path d="M489.03 52.07L489.03 52.07" stroke="rgba(241, 241, 243, 1)" stroke-width="1.5"></path><path d="M489.03 52.07L458.92 141.82" stroke="rgba(241, 241, 243, 1)" stroke-width="1.5"></path><path d="M489.03 52.07L559.48 -70.23" stroke="rgba(241, 241, 243, 1)" stroke-width="1.5"></path><path d="M489.03 52.07L345.49 79.25" stroke="rgba(241, 241, 243, 1)" stroke-width="1.5"></path><path d="M489.03 52.07L596.38 175.21" stroke="rgba(241, 241, 243, 1)" stroke-width="1.5"></path><path d="M458.92 141.82L458.92 141.82" stroke="rgba(241, 241, 243, 1)" stroke-width="1.5"></path><path d="M458.92 141.82L500.27 264.54" stroke="rgba(241, 241, 243, 1)" stroke-width="1.5"></path><path d="M458.92 141.82L345.49 79.25" stroke="rgba(241, 241, 243, 1)" stroke-width="1.5"></path><path d="M458.92 141.82L596.38 175.21" stroke="rgba(241, 241, 243, 1)" stroke-width="1.5"></path><path d="M458.92 141.82L375.72 265.78" stroke="rgba(241, 241, 243, 1)" stroke-width="1.5"></path><path d="M500.27 264.54L500.27 264.54" stroke="rgba(241, 241, 243, 1)" stroke-width="1.5"></path><path d="M500.27 264.54L607.35 251.36" stroke="rgba(241, 241, 243, 1)" stroke-width="1.5"></path><path d="M500.27 264.54L596.38 175.21" stroke="rgba(241, 241, 243, 1)" stroke-width="1.5"></path><path d="M500.27 264.54L604.6 385.88" stroke="rgba(241, 241, 243, 1)" stroke-width="1.5"></path><path d="M452.21 476.64L452.21 476.64" stroke="rgba(241, 241, 243, 1)" stroke-width="1.5"></path><path d="M452.21 476.64L481.66 560.52" stroke="rgba(241, 241, 243, 1)" stroke-width="1.5"></path><path d="M452.21 476.64L591.45 502.11" stroke="rgba(241, 241, 243, 1)" stroke-width="1.5"></path><path d="M452.21 476.64L368.67 604.84" stroke="rgba(241, 241, 243, 1)" stroke-width="1.5"></path><path d="M452.21 476.64L604.6 385.88" stroke="rgba(241, 241, 243, 1)" stroke-width="1.5"></path><path d="M452.21 476.64L600.85 607.75" stroke="rgba(241, 241, 243, 1)" stroke-width="1.5"></path><path d="M481.66 560.52L481.66 560.52" stroke="rgba(241, 241, 243, 1)" stroke-width="1.5"></path><path d="M481.66 560.52L591.45 502.11" stroke="rgba(241, 241, 243, 1)" stroke-width="1.5"></path><path d="M481.66 560.52L600.85 607.75" stroke="rgba(241, 241, 243, 1)" stroke-width="1.5"></path><path d="M454.95 695.96L454.95 695.96" stroke="rgba(241, 241, 243, 1)" stroke-width="1.5"></path><path d="M502.84 819.99L502.84 819.99" stroke="rgba(241, 241, 243, 1)" stroke-width="1.5"></path><path d="M502.84 819.99L494.99 888.22" stroke="rgba(241, 241, 243, 1)" stroke-width="1.5"></path><path d="M494.99 888.22L494.99 888.22" stroke="rgba(241, 241, 243, 1)" stroke-width="1.5"></path><path d="M494.99 888.22L561.45 915.12" stroke="rgba(241, 241, 243, 1)" stroke-width="1.5"></path><path d="M559.48 -70.23L559.48 -70.23" stroke="rgba(241, 241, 243, 1)" stroke-width="1.5"></path><path d="M559.48 -70.23L458.92 141.82" stroke="rgba(241, 241, 243, 1)" stroke-width="1.5"></path><path d="M596.38 175.21L596.38 175.21" stroke="rgba(241, 241, 243, 1)" stroke-width="1.5"></path><path d="M596.38 175.21L607.35 251.36" stroke="rgba(241, 241, 243, 1)" stroke-width="1.5"></path><path d="M607.35 251.36L607.35 251.36" stroke="rgba(241, 241, 243, 1)" stroke-width="1.5"></path><path d="M604.6 385.88L604.6 385.88" stroke="rgba(241, 241, 243, 1)" stroke-width="1.5"></path><path d="M604.6 385.88L591.45 502.11" stroke="rgba(241, 241, 243, 1)" stroke-width="1.5"></path><path d="M604.6 385.88L607.35 251.36" stroke="rgba(241, 241, 243, 1)" stroke-width="1.5"></path><path d="M604.6 385.88L596.38 175.21" stroke="rgba(241, 241, 243, 1)" stroke-width="1.5"></path><path d="M591.45 502.11L591.45 502.11" stroke="rgba(241, 241, 243, 1)" stroke-width="1.5"></path><path d="M591.45 502.11L600.85 607.75" stroke="rgba(241, 241, 243, 1)" stroke-width="1.5"></path><path d="M600.85 607.75L600.85 607.75" stroke="rgba(241, 241, 243, 1)" stroke-width="1.5"></path><path d="M600.85 607.75L594.05 710.57" stroke="rgba(241, 241, 243, 1)" stroke-width="1.5"></path><path d="M600.85 607.75L576.92 773.46" stroke="rgba(241, 241, 243, 1)" stroke-width="1.5"></path><path d="M600.85 607.75L454.95 695.96" stroke="rgba(241, 241, 243, 1)" stroke-width="1.5"></path><path d="M594.05 710.57L594.05 710.57" stroke="rgba(241, 241, 243, 1)" stroke-width="1.5"></path><path d="M594.05 710.57L576.92 773.46" stroke="rgba(241, 241, 243, 1)" stroke-width="1.5"></path><path d="M576.92 773.46L576.92 773.46" stroke="rgba(241, 241, 243, 1)" stroke-width="1.5"></path><path d="M576.92 773.46L502.84 819.99" stroke="rgba(241, 241, 243, 1)" stroke-width="1.5"></path><path d="M561.45 915.12L561.45 915.12" stroke="rgba(241, 241, 243, 1)" stroke-width="1.5"></path><path d="M561.45 915.12L502.84 819.99" stroke="rgba(241, 241, 243, 1)" stroke-width="1.5"></path><path d="M561.45 915.12L576.92 773.46" stroke="rgba(241, 241, 243, 1)" stroke-width="1.5"></path><path d="M561.45 915.12L363.67 922.84" stroke="rgba(241, 241, 243, 1)" stroke-width="1.5"></path><path d="M561.45 915.12L594.05 710.57" stroke="rgba(241, 241, 243, 1)" stroke-width="1.5"></path><path d="M561.45 915.12L376.27 789.82" stroke="rgba(241, 241, 243, 1)" stroke-width="1.5"></path><circle r="5" cx="-27.92" cy="688.91" fill="rgba(241, 241, 243, 1)"></circle><circle r="5" cx="-34.32" cy="782.04" fill="rgba(241, 241, 243, 1)"></circle><circle r="5" cx="-75" cy="912.15" fill="rgba(241, 241, 243, 1)"></circle><circle r="5" cx="78.57" cy="564.15" fill="rgba(241, 241, 243, 1)"></circle><circle r="5" cx="48.88" cy="697.17" fill="rgba(241, 241, 243, 1)"></circle><circle r="5" cx="71.31" cy="816.97" fill="rgba(241, 241, 243, 1)"></circle><circle r="5" cx="75.81" cy="917.43" fill="rgba(241, 241, 243, 1)"></circle><circle r="5" cx="170.74" cy="476.64" fill="rgba(241, 241, 243, 1)"></circle><circle r="5" cx="144.02" cy="693.94" fill="rgba(241, 241, 243, 1)"></circle><circle r="5" cx="156.99" cy="796.32" fill="rgba(241, 241, 243, 1)"></circle><circle r="5" cx="291.63" cy="280.07" fill="rgba(241, 241, 243, 1)"></circle><circle r="5" cx="262.74" cy="397.97" fill="rgba(241, 241, 243, 1)"></circle><circle r="5" cx="273.29" cy="580.01" fill="rgba(241, 241, 243, 1)"></circle><circle r="5" cx="277.08" cy="669.42" fill="rgba(241, 241, 243, 1)"></circle><circle r="5" cx="250.34" cy="787.4" fill="rgba(241, 241, 243, 1)"></circle><circle r="5" cx="272.29" cy="877.84" fill="rgba(241, 241, 243, 1)"></circle><circle r="5" cx="372.45" cy="-50.19" fill="rgba(241, 241, 243, 1)"></circle><circle r="5" cx="345.49" cy="79.25" fill="rgba(241, 241, 243, 1)"></circle><circle r="5" cx="357.62" cy="156.18" fill="rgba(241, 241, 243, 1)"></circle><circle r="5" cx="375.72" cy="265.78" fill="rgba(241, 241, 243, 1)"></circle><circle r="5" cx="383.14" cy="477.39" fill="rgba(241, 241, 243, 1)"></circle><circle r="5" cx="368.67" cy="604.84" fill="rgba(241, 241, 243, 1)"></circle><circle r="5" cx="381.99" cy="711.19" fill="rgba(241, 241, 243, 1)"></circle><circle r="5" cx="376.27" cy="789.82" fill="rgba(241, 241, 243, 1)"></circle><circle r="5" cx="363.67" cy="922.84" fill="rgba(241, 241, 243, 1)"></circle><circle r="5" cx="451.58" cy="-37.64" fill="rgba(241, 241, 243, 1)"></circle><circle r="5" cx="489.03" cy="52.07" fill="rgba(241, 241, 243, 1)"></circle><circle r="5" cx="458.92" cy="141.82" fill="rgba(241, 241, 243, 1)"></circle><circle r="5" cx="500.27" cy="264.54" fill="rgba(241, 241, 243, 1)"></circle><circle r="5" cx="452.21" cy="476.64" fill="rgba(241, 241, 243, 1)"></circle><circle r="5" cx="481.66" cy="560.52" fill="rgba(241, 241, 243, 1)"></circle><circle r="5" cx="454.95" cy="695.96" fill="rgba(241, 241, 243, 1)"></circle><circle r="5" cx="502.84" cy="819.99" fill="rgba(241, 241, 243, 1)"></circle><circle r="5" cx="494.99" cy="888.22" fill="rgba(241, 241, 243, 1)"></circle><circle r="5" cx="559.48" cy="-70.23" fill="rgba(241, 241, 243, 1)"></circle><circle r="5" cx="596.38" cy="175.21" fill="rgba(241, 241, 243, 1)"></circle><circle r="5" cx="607.35" cy="251.36" fill="rgba(241, 241, 243, 1)"></circle><circle r="5" cx="604.6" cy="385.88" fill="rgba(241, 241, 243, 1)"></circle><circle r="5" cx="591.45" cy="502.11" fill="rgba(241, 241, 243, 1)"></circle><circle r="5" cx="600.85" cy="607.75" fill="rgba(241, 241, 243, 1)"></circle><circle r="5" cx="594.05" cy="710.57" fill="rgba(241, 241, 243, 1)"></circle><circle r="5" cx="576.92" cy="773.46" fill="rgba(241, 241, 243, 1)"></circle><circle r="5" cx="561.45" cy="915.12" fill="rgba(241, 241, 243, 1)"></circle><path d="M27.5 679.77L27.5 679.77" stroke="hsl(300, 7.4%, 100%)" stroke-width="1.5"></path><path d="M27.5 679.77L-41.8 714.4" stroke="hsl(300, 7.4%, 100%)" stroke-width="1.5"></path><path d="M27.5 679.77L150.31 690.44" stroke="hsl(300, 7.4%, 100%)" stroke-width="1.5"></path><path d="M27.5 679.77L75.88 806.25" stroke="hsl(300, 7.4%, 100%)" stroke-width="1.5"></path><path d="M156.33 904.85L156.33 904.85" stroke="hsl(300, 7.4%, 100%)" stroke-width="1.5"></path><path d="M156.33 904.85L141.24 811.39" stroke="hsl(300, 7.4%, 100%)" stroke-width="1.5"></path><path d="M156.33 904.85L56.55 882" stroke="hsl(300, 7.4%, 100%)" stroke-width="1.5"></path><path d="M156.33 904.85L261.75 900.51" stroke="hsl(300, 7.4%, 100%)" stroke-width="1.5"></path><path d="M156.33 904.85L75.88 806.25" stroke="hsl(300, 7.4%, 100%)" stroke-width="1.5"></path><path d="M156.33 904.85L247.87 800.87" stroke="hsl(300, 7.4%, 100%)" stroke-width="1.5"></path><path d="M502.53 -73.96L502.53 -73.96" stroke="hsl(300, 7.4%, 100%)" stroke-width="1.5"></path><path d="M502.53 -73.96L563.02 -62.4" stroke="hsl(300, 7.4%, 100%)" stroke-width="1.5"></path><path d="M502.53 -73.96L569.24 29.88" stroke="hsl(300, 7.4%, 100%)" stroke-width="1.5"></path><path d="M475.5 153.16L475.5 153.16" stroke="hsl(300, 7.4%, 100%)" stroke-width="1.5"></path><path d="M475.5 153.16L487.07 258.97" stroke="hsl(300, 7.4%, 100%)" stroke-width="1.5"></path><path d="M475.5 153.16L591.24 179.48" stroke="hsl(300, 7.4%, 100%)" stroke-width="1.5"></path><path d="M475.5 153.16L569.24 29.88" stroke="hsl(300, 7.4%, 100%)" stroke-width="1.5"></path><path d="M475.5 153.16L370.72 270.92" stroke="hsl(300, 7.4%, 100%)" stroke-width="1.5"></path><path d="M475.5 153.16L598.29 269.35" stroke="hsl(300, 7.4%, 100%)" stroke-width="1.5"></path><path d="M475.5 153.16L502.53 -73.96" stroke="hsl(300, 7.4%, 100%)" stroke-width="1.5"></path><path d="M472.44 496.59L472.44 496.59" stroke="hsl(300, 7.4%, 100%)" stroke-width="1.5"></path><path d="M472.44 496.59L503.61 567.86" stroke="hsl(300, 7.4%, 100%)" stroke-width="1.5"></path><path d="M472.44 496.59L388.39 492.23" stroke="hsl(300, 7.4%, 100%)" stroke-width="1.5"></path><path d="M472.44 496.59L594.07 477.81" stroke="hsl(300, 7.4%, 100%)" stroke-width="1.5"></path><path d="M472.44 496.59L572.47 570.51" stroke="hsl(300, 7.4%, 100%)" stroke-width="1.5"></path><path d="M472.44 496.59L372.99 592.54" stroke="hsl(300, 7.4%, 100%)" stroke-width="1.5"></path><path d="M501.18 706.27L501.18 706.27" stroke="hsl(300, 7.4%, 100%)" stroke-width="1.5"></path><path d="M501.18 706.27L486.03 800.29" stroke="hsl(300, 7.4%, 100%)" stroke-width="1.5"></path><path d="M501.18 706.27L607.41 696.58" stroke="hsl(300, 7.4%, 100%)" stroke-width="1.5"></path><path d="M473.62 886.1L473.62 886.1" stroke="hsl(300, 7.4%, 100%)" stroke-width="1.5"></path><path d="M473.62 886.1L486.03 800.29" stroke="hsl(300, 7.4%, 100%)" stroke-width="1.5"></path><path d="M473.62 886.1L592.57 900.59" stroke="hsl(300, 7.4%, 100%)" stroke-width="1.5"></path><path d="M473.62 886.1L350.76 919.47" stroke="hsl(300, 7.4%, 100%)" stroke-width="1.5"></path><path d="M607.38 377.87L607.38 377.87" stroke="hsl(300, 7.4%, 100%)" stroke-width="1.5"></path><path d="M607.38 377.87L594.07 477.81" stroke="hsl(300, 7.4%, 100%)" stroke-width="1.5"></path><path d="M607.38 377.87L598.29 269.35" stroke="hsl(300, 7.4%, 100%)" stroke-width="1.5"></path><path d="M607.38 377.87L487.07 258.97" stroke="hsl(300, 7.4%, 100%)" stroke-width="1.5"></path><path d="M607.38 377.87L472.44 496.59" stroke="hsl(300, 7.4%, 100%)" stroke-width="1.5"></path><path d="M607.38 377.87L572.47 570.51" stroke="hsl(300, 7.4%, 100%)" stroke-width="1.5"></path><path d="M607.38 377.87L591.24 179.48" stroke="hsl(300, 7.4%, 100%)" stroke-width="1.5"></path><path d="M594.07 477.81L594.07 477.81" stroke="hsl(300, 7.4%, 100%)" stroke-width="1.5"></path><path d="M594.07 477.81L572.47 570.51" stroke="hsl(300, 7.4%, 100%)" stroke-width="1.5"></path><path d="M-41.8 714.4L-41.8 714.4" stroke="hsl(300, 7.4%, 100%)" stroke-width="1.5"></path><path d="M-41.8 714.4L-63.49 807.06" stroke="hsl(300, 7.4%, 100%)" stroke-width="1.5"></path><path d="M-41.8 714.4L75.88 806.25" stroke="hsl(300, 7.4%, 100%)" stroke-width="1.5"></path><path d="M-41.8 714.4L150.31 690.44" stroke="hsl(300, 7.4%, 100%)" stroke-width="1.5"></path><path d="M-41.8 714.4L56.55 882" stroke="hsl(300, 7.4%, 100%)" stroke-width="1.5"></path><path d="M-63.49 807.06L-63.49 807.06" stroke="hsl(300, 7.4%, 100%)" stroke-width="1.5"></path><path d="M-63.49 807.06L-62.75 911.38" stroke="hsl(300, 7.4%, 100%)" stroke-width="1.5"></path><path d="M-62.75 911.38L-62.75 911.38" stroke="hsl(300, 7.4%, 100%)" stroke-width="1.5"></path><path d="M75.88 806.25L75.88 806.25" stroke="hsl(300, 7.4%, 100%)" stroke-width="1.5"></path><path d="M75.88 806.25L141.24 811.39" stroke="hsl(300, 7.4%, 100%)" stroke-width="1.5"></path><path d="M75.88 806.25L56.55 882" stroke="hsl(300, 7.4%, 100%)" stroke-width="1.5"></path><path d="M56.55 882L56.55 882" stroke="hsl(300, 7.4%, 100%)" stroke-width="1.5"></path><path d="M56.55 882L141.24 811.39" stroke="hsl(300, 7.4%, 100%)" stroke-width="1.5"></path><path d="M56.55 882L-62.75 911.38" stroke="hsl(300, 7.4%, 100%)" stroke-width="1.5"></path><path d="M150.31 690.44L150.31 690.44" stroke="hsl(300, 7.4%, 100%)" stroke-width="1.5"></path><path d="M150.31 690.44L141.24 811.39" stroke="hsl(300, 7.4%, 100%)" stroke-width="1.5"></path><path d="M141.24 811.39L141.24 811.39" stroke="hsl(300, 7.4%, 100%)" stroke-width="1.5"></path><path d="M141.24 811.39L247.87 800.87" stroke="hsl(300, 7.4%, 100%)" stroke-width="1.5"></path><path d="M254.36 605.62L254.36 605.62" stroke="hsl(300, 7.4%, 100%)" stroke-width="1.5"></path><path d="M254.36 605.62L276.24 680.71" stroke="hsl(300, 7.4%, 100%)" stroke-width="1.5"></path><path d="M254.36 605.62L372.99 592.54" stroke="hsl(300, 7.4%, 100%)" stroke-width="1.5"></path><path d="M276.24 680.71L276.24 680.71" stroke="hsl(300, 7.4%, 100%)" stroke-width="1.5"></path><path d="M276.24 680.71L349.2 702.09" stroke="hsl(300, 7.4%, 100%)" stroke-width="1.5"></path><path d="M276.24 680.71L247.87 800.87" stroke="hsl(300, 7.4%, 100%)" stroke-width="1.5"></path><path d="M276.24 680.71L150.31 690.44" stroke="hsl(300, 7.4%, 100%)" stroke-width="1.5"></path><path d="M276.24 680.71L372.99 592.54" stroke="hsl(300, 7.4%, 100%)" stroke-width="1.5"></path><path d="M276.24 680.71L375.65 791.99" stroke="hsl(300, 7.4%, 100%)" stroke-width="1.5"></path><path d="M247.87 800.87L247.87 800.87" stroke="hsl(300, 7.4%, 100%)" stroke-width="1.5"></path><path d="M247.87 800.87L261.75 900.51" stroke="hsl(300, 7.4%, 100%)" stroke-width="1.5"></path><path d="M247.87 800.87L375.65 791.99" stroke="hsl(300, 7.4%, 100%)" stroke-width="1.5"></path><path d="M261.75 900.51L261.75 900.51" stroke="hsl(300, 7.4%, 100%)" stroke-width="1.5"></path><path d="M261.75 900.51L350.76 919.47" stroke="hsl(300, 7.4%, 100%)" stroke-width="1.5"></path><path d="M370.72 270.92L370.72 270.92" stroke="hsl(300, 7.4%, 100%)" stroke-width="1.5"></path><path d="M370.72 270.92L358.46 352.83" stroke="hsl(300, 7.4%, 100%)" stroke-width="1.5"></path><path d="M370.72 270.92L487.07 258.97" stroke="hsl(300, 7.4%, 100%)" stroke-width="1.5"></path><path d="M358.46 352.83L358.46 352.83" stroke="hsl(300, 7.4%, 100%)" stroke-width="1.5"></path><path d="M358.46 352.83L388.39 492.23" stroke="hsl(300, 7.4%, 100%)" stroke-width="1.5"></path><path d="M358.46 352.83L487.07 258.97" stroke="hsl(300, 7.4%, 100%)" stroke-width="1.5"></path><path d="M358.46 352.83L472.44 496.59" stroke="hsl(300, 7.4%, 100%)" stroke-width="1.5"></path><path d="M388.39 492.23L388.39 492.23" stroke="hsl(300, 7.4%, 100%)" stroke-width="1.5"></path><path d="M388.39 492.23L372.99 592.54" stroke="hsl(300, 7.4%, 100%)" stroke-width="1.5"></path><path d="M388.39 492.23L503.61 567.86" stroke="hsl(300, 7.4%, 100%)" stroke-width="1.5"></path><path d="M372.99 592.54L372.99 592.54" stroke="hsl(300, 7.4%, 100%)" stroke-width="1.5"></path><path d="M372.99 592.54L349.2 702.09" stroke="hsl(300, 7.4%, 100%)" stroke-width="1.5"></path><path d="M372.99 592.54L503.61 567.86" stroke="hsl(300, 7.4%, 100%)" stroke-width="1.5"></path><path d="M349.2 702.09L349.2 702.09" stroke="hsl(300, 7.4%, 100%)" stroke-width="1.5"></path><path d="M349.2 702.09L375.65 791.99" stroke="hsl(300, 7.4%, 100%)" stroke-width="1.5"></path><path d="M349.2 702.09L254.36 605.62" stroke="hsl(300, 7.4%, 100%)" stroke-width="1.5"></path><path d="M349.2 702.09L247.87 800.87" stroke="hsl(300, 7.4%, 100%)" stroke-width="1.5"></path><path d="M349.2 702.09L501.18 706.27" stroke="hsl(300, 7.4%, 100%)" stroke-width="1.5"></path><path d="M375.65 791.99L375.65 791.99" stroke="hsl(300, 7.4%, 100%)" stroke-width="1.5"></path><path d="M375.65 791.99L486.03 800.29" stroke="hsl(300, 7.4%, 100%)" stroke-width="1.5"></path><path d="M350.76 919.47L350.76 919.47" stroke="hsl(300, 7.4%, 100%)" stroke-width="1.5"></path><path d="M350.76 919.47L375.65 791.99" stroke="hsl(300, 7.4%, 100%)" stroke-width="1.5"></path><path d="M487.07 258.97L487.07 258.97" stroke="hsl(300, 7.4%, 100%)" stroke-width="1.5"></path><path d="M487.07 258.97L598.29 269.35" stroke="hsl(300, 7.4%, 100%)" stroke-width="1.5"></path><path d="M487.07 258.97L591.24 179.48" stroke="hsl(300, 7.4%, 100%)" stroke-width="1.5"></path><path d="M503.61 567.86L503.61 567.86" stroke="hsl(300, 7.4%, 100%)" stroke-width="1.5"></path><path d="M503.61 567.86L572.47 570.51" stroke="hsl(300, 7.4%, 100%)" stroke-width="1.5"></path><path d="M486.03 800.29L486.03 800.29" stroke="hsl(300, 7.4%, 100%)" stroke-width="1.5"></path><path d="M486.03 800.29L592.57 900.59" stroke="hsl(300, 7.4%, 100%)" stroke-width="1.5"></path><path d="M486.03 800.29L607.41 696.58" stroke="hsl(300, 7.4%, 100%)" stroke-width="1.5"></path><path d="M563.02 -62.4L563.02 -62.4" stroke="hsl(300, 7.4%, 100%)" stroke-width="1.5"></path><path d="M563.02 -62.4L569.24 29.88" stroke="hsl(300, 7.4%, 100%)" stroke-width="1.5"></path><path d="M563.02 -62.4L475.5 153.16" stroke="hsl(300, 7.4%, 100%)" stroke-width="1.5"></path><path d="M569.24 29.88L569.24 29.88" stroke="hsl(300, 7.4%, 100%)" stroke-width="1.5"></path><path d="M569.24 29.88L591.24 179.48" stroke="hsl(300, 7.4%, 100%)" stroke-width="1.5"></path><path d="M591.24 179.48L591.24 179.48" stroke="hsl(300, 7.4%, 100%)" stroke-width="1.5"></path><path d="M591.24 179.48L598.29 269.35" stroke="hsl(300, 7.4%, 100%)" stroke-width="1.5"></path><path d="M598.29 269.35L598.29 269.35" stroke="hsl(300, 7.4%, 100%)" stroke-width="1.5"></path><path d="M572.47 570.51L572.47 570.51" stroke="hsl(300, 7.4%, 100%)" stroke-width="1.5"></path><path d="M607.41 696.58L607.41 696.58" stroke="hsl(300, 7.4%, 100%)" stroke-width="1.5"></path><path d="M607.41 696.58L572.47 570.51" stroke="hsl(300, 7.4%, 100%)" stroke-width="1.5"></path><path d="M592.57 900.59L592.57 900.59" stroke="hsl(300, 7.4%, 100%)" stroke-width="1.5"></path><path d="M592.57 900.59L607.41 696.58" stroke="hsl(300, 7.4%, 100%)" stroke-width="1.5"></path><circle r="25" cx="27.5" cy="679.77" fill="url(&quot;#SvgjsRadialGradient1077&quot;)"></circle><circle r="25" cx="156.33" cy="904.85" fill="url(&quot;#SvgjsRadialGradient1077&quot;)"></circle><circle r="25" cx="502.53" cy="-73.96" fill="url(&quot;#SvgjsRadialGradient1077&quot;)"></circle><circle r="25" cx="475.5" cy="153.16" fill="url(&quot;#SvgjsRadialGradient1077&quot;)"></circle><circle r="25" cx="472.44" cy="496.59" fill="url(&quot;#SvgjsRadialGradient1077&quot;)"></circle><circle r="25" cx="501.18" cy="706.27" fill="url(&quot;#SvgjsRadialGradient1077&quot;)"></circle><circle r="25" cx="473.62" cy="886.1" fill="url(&quot;#SvgjsRadialGradient1077&quot;)"></circle><circle r="25" cx="607.38" cy="377.87" fill="url(&quot;#SvgjsRadialGradient1077&quot;)"></circle><circle r="25" cx="594.07" cy="477.81" fill="url(&quot;#SvgjsRadialGradient1077&quot;)"></circle><circle r="5" cx="-41.8" cy="714.4" fill="#e9e6e9"></circle><circle r="5" cx="-63.49" cy="807.06" fill="#e9e6e9"></circle><circle r="5" cx="-62.75" cy="911.38" fill="#e9e6e9"></circle><circle r="5" cx="75.88" cy="806.25" fill="#e9e6e9"></circle><circle r="5" cx="56.55" cy="882" fill="#e9e6e9"></circle><circle r="5" cx="150.31" cy="690.44" fill="#e9e6e9"></circle><circle r="5" cx="141.24" cy="811.39" fill="#e9e6e9"></circle><circle r="5" cx="254.36" cy="605.62" fill="#e9e6e9"></circle><circle r="5" cx="276.24" cy="680.71" fill="#e9e6e9"></circle><circle r="5" cx="247.87" cy="800.87" fill="#e9e6e9"></circle><circle r="5" cx="261.75" cy="900.51" fill="#e9e6e9"></circle><circle r="5" cx="370.72" cy="270.92" fill="#e9e6e9"></circle><circle r="5" cx="358.46" cy="352.83" fill="#e9e6e9"></circle><circle r="5" cx="388.39" cy="492.23" fill="#e9e6e9"></circle><circle r="5" cx="372.99" cy="592.54" fill="#e9e6e9"></circle><circle r="5" cx="349.2" cy="702.09" fill="#e9e6e9"></circle><circle r="5" cx="375.65" cy="791.99" fill="#e9e6e9"></circle><circle r="5" cx="350.76" cy="919.47" fill="#e9e6e9"></circle><circle r="5" cx="487.07" cy="258.97" fill="#e9e6e9"></circle><circle r="5" cx="503.61" cy="567.86" fill="#e9e6e9"></circle><circle r="5" cx="486.03" cy="800.29" fill="#e9e6e9"></circle><circle r="5" cx="563.02" cy="-62.4" fill="#e9e6e9"></circle><circle r="5" cx="569.24" cy="29.88" fill="#e9e6e9"></circle><circle r="5" cx="591.24" cy="179.48" fill="#e9e6e9"></circle><circle r="5" cx="598.29" cy="269.35" fill="#e9e6e9"></circle><circle r="5" cx="572.47" cy="570.51" fill="#e9e6e9"></circle><circle r="5" cx="607.41" cy="696.58" fill="#e9e6e9"></circle><circle r="5" cx="592.57" cy="900.59" fill="#e9e6e9"></circle></g><defs><mask id="SvgjsMask1076"><rect width="500" height="850" fill="#ffffff"></rect></mask><radialGradient id="SvgjsRadialGradient1077"><stop stop-color="#ffffff" offset="0.1"></stop><stop stop-color="rgba(211, 204, 211, 1)" offset="0.2"></stop><stop stop-color="rgba(211, 204, 211, 0)" offset="1"></stop></radialGradient></defs></svg>